<svg width="247" height="76" viewBox="0 0 247 76" fill="none" xmlns="http://www.w3.org/2000/svg">
<path d="M59.6294 24.953C58.7237 24.9748 57.818 25.0776 56.9123 25.133C56.4535 25.1606 55.9986 25.1685 55.5379 25.1745H55.5023C55.2393 25.212 54.9802 25.2338 54.7113 25.2476L54.1892 25.3228C54.151 25.3257 54.1127 25.3257 54.0745 25.3228C51.0034 25.4928 47.9303 25.6708 44.8552 25.8289C43.819 25.8823 42.7729 25.8289 41.7406 25.9258C39.423 26.1591 37.481 25.7637 35.4837 24.17C32.0369 21.4158 27.0238 21.9951 23.5434 24.7929C22.6548 25.4856 21.5671 25.8744 20.4406 25.9021C15.6748 25.8448 10.9129 25.5857 6.00466 25.3939C6.97167 13.8786 17.4941 5.24018 30.1444 5.2738C41.2462 5.30543 50.6553 12.0398 53.3606 21.4711H59.0065C58.0319 17.4567 56.1362 13.724 53.4694 10.5688C46.4037 2.16364 37.1429 -0.701347 26.4879 0.140947C14.1758 1.10781 3.74632 9.87874 1.11422 21.9042C0.2013 26.0492 -0.153182 30.2976 0.0601972 34.5366L5.27099 34.497C10.727 35.2049 15.5126 35.4856 20.0886 36.6107C21.6529 36.9962 23.4781 39.357 23.8143 41.0812C24.6271 45.2491 24.631 49.5832 25.0008 54.2455C19.6101 53.9192 14.4527 54.2356 10.0645 51.3746C8.58138 50.4077 7.45419 48.2545 7.02902 46.4414C6.50893 44.2388 6.20439 41.9788 5.90974 39.5567H0.428018C0.726625 42.2042 1.17157 44.8478 1.72923 47.4794C2.95333 53.249 6.58605 57.0531 12.4198 58.0536C18.2001 59.0422 24.0872 59.4535 28.4595 59.9497C34.6195 59.5326 39.2648 59.3566 43.8843 58.8741C52.4727 57.9607 56.9103 54.3265 58.5714 46.8289C60.0822 40.0135 60.278 33.0596 59.7579 26.1394C59.7204 25.74 59.6788 25.3465 59.6294 24.953ZM31.3368 53.9766C29.6915 54.5124 28.859 54.196 28.9084 52.3691C28.9836 49.601 28.9776 46.823 28.9084 44.0529C28.8629 42.224 29.7113 41.9274 31.3368 42.4356V53.9766ZM30.0099 37.2671C28.7974 37.2671 27.6122 36.9076 26.6041 36.2341C25.5959 35.5606 24.8102 34.6034 24.3462 33.4834C23.8822 32.3634 23.7608 31.131 23.9974 29.942C24.2339 28.753 24.8178 27.6608 25.6751 26.8036C26.5324 25.9464 27.6248 25.3627 28.8139 25.1262C30.0031 24.8897 31.2357 25.011 32.3559 25.475C33.4761 25.9389 34.4335 26.7245 35.1071 27.7325C35.7807 28.7404 36.1403 29.9255 36.1403 31.1378C36.1403 31.9427 35.9817 32.7397 35.6736 33.4834C35.3655 34.227 34.914 34.9027 34.3447 35.4719C33.7755 36.041 33.0997 36.4925 32.3559 36.8006C31.6121 37.1086 30.815 37.2671 30.0099 37.2671ZM52.538 48.3771C51.7924 50.384 50.3627 51.9005 48.308 52.3592C44.2877 53.2588 40.2001 53.8777 35.899 54.6567C35.899 50.9831 35.8337 47.9006 35.9267 44.824C35.9722 43.3826 36.1244 41.8819 36.5832 40.5315C37.2615 38.5365 38.3986 36.6522 40.7064 36.3121C45.14 35.6557 49.6053 35.2049 54.3632 34.6315C54.4305 39.6378 54.1299 44.0944 52.538 48.3771Z" fill="#FFCD0A"/>
<path d="M30.0103 34.6075C31.6944 34.6075 33.0596 33.2425 33.0596 31.5586C33.0596 29.8748 31.6944 28.5098 30.0103 28.5098C28.3262 28.5098 26.9609 29.8748 26.9609 31.5586C26.9609 33.2425 28.3262 34.6075 30.0103 34.6075Z" fill="#221F1F"/>
<path d="M69.3713 43.7783V33.4751C69.3713 33.1846 69.4867 32.9059 69.6922 32.7005C69.8976 32.4951 70.1763 32.3797 70.4668 32.3797H72.8616C73.1036 32.3799 73.3388 32.4601 73.5305 32.6078C73.7222 32.7555 73.8597 32.9624 73.9216 33.1963L75.0943 37.6272C75.1946 37.9933 75.401 38.3214 75.6875 38.5703C76.0096 38.8614 76.3578 39.1222 76.7277 39.3494C77.2102 39.6262 77.9142 39.9775 78.8397 40.4032C79.819 40.8506 80.8256 41.2356 81.8535 41.5559C82.8166 41.8793 83.8237 42.0527 84.8396 42.07C87.3444 42.07 89.4043 41.5658 91.0193 40.5575C92.6343 39.5491 93.4445 38.165 93.4497 36.4053C93.4497 34.7589 92.9448 33.5924 91.9349 32.9056C90.654 32.0816 89.2907 31.3931 87.8671 30.8513C86.2525 30.2204 84.6063 29.6733 82.9352 29.2122C81.3162 28.768 79.7382 28.2592 78.201 27.6858C75.8504 26.7776 73.9289 25.4489 72.4365 23.6997C70.9441 21.9505 70.1992 19.6504 70.2019 16.7992C70.2019 14.1893 70.9843 11.9307 72.5492 10.0233C74.1141 8.11596 76.1509 6.64425 78.6598 5.60819C81.2016 4.56482 83.9251 4.03592 86.6727 4.05212C88.3479 4.05557 90.0216 4.15327 91.6858 4.34475C93.4168 4.53851 95.0785 4.77908 96.6711 5.06643C97.8893 5.28656 98.9881 5.49812 99.9677 5.70112C100.214 5.75215 100.435 5.88668 100.594 6.08195C100.752 6.27722 100.838 6.52125 100.838 6.77277V16.7043C100.838 16.9948 100.722 17.2734 100.517 17.4789C100.311 17.6843 100.033 17.7997 99.7422 17.7997H97.3395C97.1001 17.8 96.8672 17.7216 96.6768 17.5765C96.4863 17.4314 96.3488 17.2278 96.2855 16.9969L95.099 12.7163C94.986 12.4082 94.8001 12.1321 94.5571 11.9116C94.3255 11.6809 94.0696 11.4761 93.7938 11.3006C93.2896 11.023 92.7707 10.7729 92.2395 10.5512C91.4002 10.1898 90.5365 9.88784 89.6548 9.64764C88.7423 9.38959 87.799 9.25656 86.8507 9.25219C84.4236 9.25219 82.6043 9.761 81.3927 10.7786C80.1811 11.7962 79.5721 12.9028 79.5655 14.0984C79.5503 14.7007 79.654 15.3001 79.8709 15.8623C80.0877 16.4245 80.4134 16.9384 80.8291 17.3746C81.6715 18.263 83.2503 19.0869 85.5653 19.8461C87.1012 20.3641 88.6173 20.8407 90.1136 21.2756C91.61 21.7106 93.248 22.284 95.0278 22.9958C96.4687 23.5507 97.8356 24.2812 99.0976 25.1708C100.324 26.0391 101.338 27.1733 102.064 28.4885C102.814 29.8304 103.189 31.5104 103.189 33.5284C103.197 35.9422 102.491 38.3045 101.16 40.3182C99.8167 42.3943 97.7726 44.0677 95.0278 45.3384C92.283 46.609 88.8111 47.2431 84.6121 47.2404C83.0265 47.2244 81.4442 47.0922 79.8779 46.845C78.0902 46.5814 76.2755 46.2479 74.4338 45.8445C72.9111 45.5163 71.4938 45.1868 70.1821 44.8559C69.9459 44.7928 69.7377 44.6523 69.5908 44.457C69.4438 44.2616 69.3665 44.0227 69.3713 43.7783Z" fill="#383838"/>
<path d="M131.364 47.2339C127.55 47.2339 124.36 46.6408 121.795 45.4544C119.229 44.2681 117.304 42.6666 116.019 40.6498C114.734 38.6505 114.063 36.3191 114.088 33.9431V10.8097C114.088 10.4221 113.982 10.1493 113.768 9.99111C113.53 9.81984 113.274 9.67529 113.005 9.56007L109.176 7.95457C108.978 7.87044 108.808 7.7298 108.689 7.55016C108.57 7.37052 108.506 7.1598 108.506 6.94422V6.12763C108.506 5.8378 108.622 5.55999 108.827 5.35506C109.032 5.15012 109.31 5.03475 109.599 5.03423H128.408C128.698 5.03423 128.976 5.14936 129.182 5.35436C129.387 5.55935 129.503 5.83746 129.503 6.12763V6.94026C129.503 7.15698 129.439 7.36879 129.318 7.54873C129.197 7.72866 129.026 7.86857 128.825 7.95062L124.921 9.55019C124.682 9.65106 124.457 9.7841 124.253 9.94563C124.136 10.0512 124.045 10.1827 123.987 10.3295C123.929 10.4764 123.907 10.6347 123.921 10.7919V31.2106C123.924 32.3764 124.04 33.5391 124.267 34.6826C124.49 35.8479 124.934 36.9599 125.574 37.9588C126.26 39.0012 127.217 39.8366 128.342 40.375C129.554 40.9866 131.142 41.2924 133.106 41.2924C135.05 41.2924 136.651 40.9866 137.912 40.375C139.097 39.8281 140.127 38.9926 140.906 37.945C141.633 36.946 142.157 35.8141 142.448 34.6134C142.736 33.4361 142.882 32.2287 142.883 31.0168V10.9679C142.883 10.5724 142.784 10.3094 142.591 10.1611C142.378 10.0013 142.15 9.86226 141.91 9.74593L137.995 7.95457C137.805 7.86784 137.644 7.72869 137.531 7.55353C137.418 7.37837 137.357 7.1745 137.356 6.96597V6.12367C137.356 5.83369 137.471 5.55558 137.676 5.35052C137.881 5.14547 138.16 5.03027 138.45 5.03027H153.166C153.456 5.0308 153.734 5.14616 153.939 5.3511C154.144 5.55604 154.259 5.83385 154.26 6.12367V6.96597C154.259 7.1745 154.198 7.37837 154.085 7.55353C153.972 7.72869 153.811 7.86784 153.621 7.95457L149.696 9.74791C149.445 9.86037 149.207 9.99958 148.986 10.1631C148.792 10.3121 148.695 10.581 148.695 10.9698V32.6836C148.695 35.3199 148.126 37.5555 146.987 39.3903C145.88 41.2 144.38 42.7374 142.599 43.8885C140.85 45.0283 138.934 45.8857 136.919 46.4292C135.111 46.9392 133.243 47.2098 131.364 47.2339Z" fill="#383838"/>
<path d="M159.832 45.14V44.3254C159.832 44.1093 159.897 43.8981 160.017 43.7185C160.137 43.539 160.308 43.3993 160.508 43.3171L164.416 41.7056C164.688 41.6096 164.935 41.4535 165.138 41.2489C165.342 40.994 165.441 40.6708 165.415 40.3453V10.7998C165.429 10.6439 165.407 10.4868 165.352 10.3403C165.297 10.1938 165.209 10.0616 165.096 9.95352C164.892 9.78637 164.662 9.65288 164.416 9.55808L160.508 7.94862C160.308 7.86626 160.137 7.72622 160.016 7.54631C159.896 7.3664 159.832 7.15475 159.832 6.93826V6.12365C159.833 5.83401 159.948 5.5564 160.153 5.35178C160.358 5.14715 160.636 5.03223 160.926 5.03223H181.108C185.162 5.03223 188.273 5.47183 190.44 6.35103C192.608 7.23023 194.098 8.36252 194.911 9.74789C195.711 11.0817 196.134 12.6078 196.134 14.163C196.134 16.7914 195.351 18.9433 193.786 20.6186C192.221 22.294 190.097 23.4559 187.413 24.1044V24.4663C189.635 24.577 191.608 25.0489 193.329 25.882C194.955 26.6345 196.354 27.8028 197.383 29.2689C198.364 30.6939 198.855 32.3692 198.857 34.295C198.857 36.6677 198.389 38.6304 197.453 40.1832C196.536 41.7207 195.222 42.9823 193.648 43.8351C191.951 44.7471 190.117 45.3756 188.218 45.6956C186.145 46.0619 184.045 46.2432 181.941 46.2374H160.926C160.782 46.2371 160.639 46.2086 160.506 46.1533C160.374 46.098 160.253 46.0171 160.152 45.9152C160.05 45.8133 159.969 45.6924 159.915 45.5594C159.86 45.4264 159.832 45.2839 159.832 45.14ZM175.136 11.3297V21.5578C175.137 21.8476 175.252 22.1254 175.457 22.3304C175.662 22.5353 175.94 22.6507 176.23 22.6512H177.942C180.974 22.6512 183.067 22.1463 184.219 21.1367C185.371 20.127 185.945 18.7429 185.941 16.9845C185.941 14.6118 185.39 12.895 184.288 11.8338C183.186 10.7727 181.385 10.2402 178.886 10.2363H176.23C175.94 10.2368 175.662 10.3521 175.457 10.5571C175.252 10.762 175.137 11.0398 175.136 11.3297ZM175.136 28.5749V39.9143C175.137 40.2039 175.252 40.4815 175.457 40.6861C175.662 40.8908 175.94 41.0057 176.23 41.0057H180.851C183.405 41.0057 185.298 40.5015 186.531 39.4931C187.763 38.4847 188.379 36.8601 188.378 34.6193C188.378 31.9922 187.744 30.1468 186.475 29.0831C185.207 28.0193 183.003 27.4881 179.862 27.4894H176.23C175.94 27.49 175.662 27.6053 175.457 27.8103C175.252 28.0152 175.137 28.293 175.136 28.5828V28.5749Z" fill="#383838"/>
<path d="M201.105 45.1399V44.2818C201.105 44.0756 201.162 43.8735 201.272 43.6986C201.381 43.5238 201.537 43.3832 201.722 43.2932L204.133 42.1207C204.774 41.7952 205.268 41.2403 205.517 40.5666L217.165 11.3038C217.177 11.2741 217.191 11.2465 217.205 11.2188L220.323 5.00439C220.417 4.82353 220.559 4.67227 220.733 4.56752C220.908 4.46276 221.108 4.40864 221.312 4.41122H227.521C227.743 4.41098 227.96 4.47816 228.143 4.60386C228.326 4.72956 228.466 4.90784 228.546 5.11511L242.191 40.7346C242.32 41.05 242.488 41.3482 242.691 41.6224C242.881 41.8902 243.14 42.1014 243.44 42.2334L245.944 43.309C246.141 43.3938 246.308 43.5343 246.426 43.7132C246.543 43.892 246.606 44.1013 246.606 44.3154V45.1399C246.606 45.4304 246.491 45.709 246.286 45.9144C246.08 46.1199 245.801 46.2353 245.511 46.2353H228.815C228.524 46.2353 228.245 46.1199 228.04 45.9144C227.835 45.709 227.719 45.4304 227.719 45.1399V44.349C227.72 44.1299 227.786 43.916 227.909 43.7348C228.033 43.5537 228.208 43.4136 228.411 43.3327L231.453 42.1227C231.722 42.0152 231.939 41.8053 232.054 41.5389C232.169 41.2724 232.174 40.9711 232.068 40.701L223.244 18.3941C223.228 18.3555 223.215 18.3158 223.204 18.2755L222.182 14.493H221.541L211.507 40.5547C211.405 40.8197 211.41 41.114 211.521 41.3755C211.631 41.637 211.839 41.8454 212.101 41.9566L215.292 43.3129C215.49 43.3969 215.659 43.5373 215.778 43.7167C215.896 43.896 215.959 44.1063 215.959 44.3213V45.1399C215.959 45.4304 215.843 45.709 215.638 45.9144C215.432 46.1199 215.154 46.2353 214.863 46.2353H202.209C202.064 46.2363 201.921 46.2087 201.787 46.1542C201.653 46.0996 201.532 46.0191 201.429 45.9172C201.327 45.8154 201.245 45.6943 201.19 45.5609C201.134 45.4275 201.105 45.2844 201.105 45.1399ZM214.434 31.9558L215.577 29.1244C215.659 28.9218 215.799 28.7481 215.98 28.6259C216.161 28.5036 216.375 28.4383 216.593 28.4383H226.796C227.017 28.4382 227.233 28.505 227.415 28.6299C227.598 28.7548 227.738 28.9321 227.818 29.1383L228.916 31.9736C228.979 32.1396 229.002 32.3187 228.981 32.4953C228.96 32.672 228.897 32.8409 228.796 32.9876C228.696 33.1343 228.561 33.2544 228.403 33.3374C228.246 33.4205 228.071 33.4641 227.893 33.4644H215.458C215.278 33.466 215.1 33.4231 214.94 33.3393C214.78 33.2556 214.644 33.1336 214.542 32.9844C214.441 32.8351 214.378 32.6631 214.359 32.4836C214.34 32.3042 214.366 32.1229 214.434 31.9558Z" fill="#383838"/>
<path d="M117.341 51.4025H108.12V75.0145H105.569V51.4025H96.3496V49.1426H117.341V51.4025Z" fill="#383838"/>
<path d="M126.888 58.2159C125.333 58.2349 123.818 58.7168 122.538 59.5999C121.284 60.479 120.355 61.7474 119.896 63.2083V75.0143H117.412V56.1022H119.746V60.5846C120.349 59.3151 121.24 58.2046 122.35 57.3419C123.338 56.5532 124.536 56.072 125.795 55.9579C126.007 55.9343 126.22 55.9217 126.434 55.9203C126.586 55.9175 126.738 55.9301 126.888 55.9579V58.2159Z" fill="#383838"/>
<path d="M128.601 69.5847C128.576 68.4771 128.937 67.3952 129.621 66.524C130.368 65.6201 131.343 64.9325 132.445 64.533C133.78 64.0394 135.195 63.8 136.618 63.8271C137.582 63.8302 138.544 63.9035 139.497 64.0466C140.405 64.1697 141.297 64.3891 142.159 64.701V63.1034C142.159 61.5098 141.685 60.2424 140.737 59.3012C139.789 58.3601 138.477 57.8889 136.8 57.8875C135.771 57.8898 134.753 58.0815 133.794 58.453C132.707 58.8853 131.674 59.4412 130.715 60.1099L129.768 58.3621C130.895 57.5696 132.12 56.9263 133.412 56.4481C134.581 56.0291 135.813 55.8157 137.055 55.8174C139.388 55.8174 141.234 56.4811 142.592 57.8085C143.95 59.1358 144.63 60.9707 144.633 63.313V72.0306C144.61 72.2962 144.688 72.5607 144.85 72.772C145.038 72.9475 145.285 73.045 145.542 73.0449V75.0221C145.275 75.0458 145.044 75.0695 144.85 75.0952C144.706 75.1197 144.558 75.1197 144.413 75.0952C143.806 75.0695 143.343 74.8758 143.029 74.5021C142.732 74.1821 142.552 73.7708 142.519 73.3355L142.481 71.9515C141.608 73.0626 140.467 73.9341 139.165 74.4843C137.857 75.0667 136.443 75.3704 135.012 75.376C133.867 75.3935 132.735 75.1272 131.717 74.6009C130.776 74.1224 129.982 73.3965 129.421 72.5011C128.876 71.627 128.591 70.6152 128.601 69.5847ZM141.32 71.0281C141.563 70.7279 141.771 70.4009 141.939 70.0533C142.072 69.7957 142.147 69.5123 142.159 69.2229V66.4785C141.325 66.1636 140.464 65.9221 139.588 65.7569C138.705 65.5885 137.809 65.5044 136.91 65.5058C135.137 65.5058 133.704 65.8544 132.609 66.5517C131.515 67.249 130.969 68.2 130.97 69.4048C130.969 70.0981 131.157 70.7786 131.516 71.3721C131.907 72.0113 132.46 72.5353 133.119 72.8906C133.88 73.3008 134.734 73.5053 135.597 73.4838C136.743 73.4914 137.878 73.2576 138.927 72.7977C139.861 72.4171 140.683 71.8087 141.32 71.0281Z" fill="#383838"/>
<path d="M155.06 75.0146L147.371 56.1025H149.958L156.446 72.547L162.972 56.1025H165.414L157.716 75.0146H155.06Z" fill="#383838"/>
<path d="M176.379 75.3784C175.103 75.388 173.839 75.1332 172.666 74.6303C171.494 74.1274 170.438 73.3871 169.565 72.4561C168.714 71.5433 168.043 70.478 167.587 69.3163C167.108 68.103 166.866 66.8088 166.875 65.5042C166.859 63.8106 167.28 62.1413 168.098 60.6581C168.889 59.2082 170.049 57.9923 171.459 57.1327C172.931 56.2431 174.624 55.7873 176.344 55.8178C178.215 55.8178 179.848 56.264 181.244 57.1564C182.626 58.0329 183.762 59.2477 184.543 60.6857C185.348 62.1547 185.762 63.8057 185.745 65.4805V66.0401C185.749 66.18 185.737 66.32 185.709 66.4572H169.456C169.552 67.7324 169.945 68.9674 170.603 70.0637C171.223 71.0919 172.087 71.9511 173.119 72.5649C174.133 73.1761 175.296 73.4963 176.48 73.4902C177.716 73.491 178.93 73.1642 179.998 72.5431C181.103 71.9104 181.874 71.0839 182.312 70.0637L184.462 70.6568C184.051 71.5894 183.444 72.4223 182.682 73.0987C181.86 73.8346 180.903 74.4046 179.864 74.7774C178.748 75.1848 177.568 75.3884 176.379 75.3784ZM169.383 64.6659H183.423C183.356 63.3906 182.974 62.1518 182.312 61.0594C181.691 60.0498 180.826 59.2127 179.797 58.6255C178.759 58.0363 177.583 57.7321 176.389 57.7437C175.201 57.7308 174.031 58.0352 173 58.6255C171.975 59.2196 171.116 60.0629 170.504 61.0772C169.843 62.1641 169.458 63.3961 169.383 64.6659Z" fill="#383838"/>
<path d="M189.68 48.415H192.16V70.8446C192.16 71.7976 192.328 72.4263 192.67 72.715C193.014 73.0094 193.455 73.1657 193.908 73.154C194.349 73.1532 194.79 73.1041 195.221 73.0076C195.657 72.9101 196.034 72.8132 196.35 72.717L196.787 74.7199C196.24 74.939 195.671 75.0981 195.09 75.1944C194.52 75.3054 193.941 75.3663 193.36 75.3763C192.242 75.3763 191.349 75.0468 190.68 74.3877C190.012 73.7287 189.678 72.8251 189.678 71.677L189.68 48.415Z" fill="#383838"/>
<path d="M205.715 75.3779C204.235 75.3911 202.765 75.1317 201.379 74.6127C200.059 74.1146 198.874 73.3165 197.916 72.2816L198.936 70.5317C199.873 71.4432 200.966 72.1797 202.162 72.7067C203.254 73.159 204.425 73.3882 205.607 73.3809C207.087 73.3809 208.289 73.0863 209.214 72.4971C209.652 72.2357 210.011 71.8614 210.255 71.4134C210.498 70.9653 210.617 70.46 210.598 69.9504C210.598 69.2004 210.373 68.627 209.924 68.2303C209.359 67.7662 208.7 67.4291 207.994 67.2417C207.155 66.9873 206.152 66.7151 204.986 66.4251C203.86 66.1284 202.758 65.747 201.689 65.2842C200.899 64.9616 200.207 64.4365 199.684 63.7618C199.233 63.1475 199.008 62.3448 199.01 61.3535C199.01 60.1211 199.319 59.1002 199.939 58.2908C200.602 57.4505 201.485 56.8111 202.49 56.4441C203.648 56.007 204.879 55.7917 206.117 55.8094C207.437 55.7845 208.749 56.0197 209.979 56.5014C211.032 56.9165 211.969 57.5791 212.712 58.4332L211.51 60.1079C210.851 59.3472 210.02 58.7542 209.087 58.3778C208.093 57.9913 207.033 57.8 205.967 57.8143C205.215 57.8107 204.466 57.9146 203.744 58.1227C203.086 58.3004 202.488 58.6506 202.011 59.1371C201.563 59.6076 201.338 60.2535 201.337 61.0747C201.337 61.7509 201.507 62.2782 201.847 62.6565C202.275 63.0878 202.8 63.4111 203.378 63.5996C204.058 63.8527 204.897 64.1243 205.893 64.4142C207.328 64.7991 208.58 65.1913 209.651 65.5907C210.721 65.9901 211.547 66.5028 212.129 67.129C212.711 67.7577 213.003 68.6389 213.005 69.7725C213.005 71.5362 212.336 72.9123 210.999 73.9009C209.663 74.8895 207.901 75.3819 205.715 75.3779Z" fill="#383838"/>
</svg>
